<svg version="1.1" id="Layer_1" xmlns="http://www.w3.org/2000/svg" xmlns:xlink="http://www.w3.org/1999/xlink" x="0px" y="0px"
	 viewBox="-7 7 4 7" style="enable-background:new -7 7 4 7;" xml:space="preserve">
<style type="text/css">
	.st0{fill:#181818;}
</style>
<g id="Symbols">
	<g id="Arrow_Icon">
		<g id="Page-1">
			<path id="Fill-1" class="st0" d="M-6.9,10.2l3.1-3.1c0,0,0.1-0.1,0.2-0.1c0.1,0,0.1,0,0.2,0.1l0.3,0.3c0,0,0.1,0.1,0.1,0.2
				s0,0.1-0.1,0.2l-2.6,2.6l2.6,2.6c0,0,0.1,0.1,0.1,0.2c0,0.1,0,0.1-0.1,0.2l-0.3,0.3c0,0-0.1,0.1-0.2,0.1c-0.1,0-0.1,0-0.2-0.1
				l-3.1-3.1c0,0-0.1-0.1-0.1-0.2C-7,10.3-7,10.2-6.9,10.2"/>
		</g>
	</g>
</g>
</svg>
