<svg width="50" height="51" version="1.1" id="Layer_1" xmlns="http://www.w3.org/2000/svg" xmlns:xlink="http://www.w3.org/1999/xlink" x="0px" y="0px"
	 viewBox="0 0 70.2 59.9" style="enable-background:new 0 0 70.2 59.9;" xml:space="preserve">
<style type="text/css">
	.st0{fill:#EE3E42;}
	.st1{fill:#FEFEFE;}
	.st2{filter:url(#Adobe_OpacityMaskFilter);}
	.st3{fill:#FFFFFF;}
	.st4{mask:url(#mask-2);fill:#020403;}
</style>
<g id="Global_Styles">
	<g id="VCF-_x2013_-Global-Styles" transform="translate(-803.000000, -336.000000)">
		<g id="Page-1" transform="translate(803.000000, 336.000000)">
			<polygon id="Fill-1" class="st0" points="5.1,59.9 65,59.9 65,0 5.1,0 			"/>
			<polygon id="Fill-2" class="st1" points="14.9,41.9 9.5,18.4 14.7,18.4 19.8,41.9 			"/>
			<polygon id="Fill-3" class="st1" points="21,39.6 18.7,29.5 21.5,18.4 26.5,18.4 			"/>
			<g id="Group-19" transform="translate(23.009174, 17.521212)">
				<path id="Fill-4" class="st1" d="M12.6,4.7c-1.2,0.2-2,1.2-2,2.5v10.9c0,1.3,0.7,2.3,2,2.5V25c-4.5-0.3-7.1-2.9-7.1-7.1V7.5
					c0-4.3,2.6-6.8,7.1-7.1V4.7z"/>
				<path id="Fill-6" class="st1" d="M21.2,18.3c0,4.1-2.7,6.4-6.9,6.7v-4.3c1-0.2,2-1,2-2.6v-2.2h4.9V18.3z"/>
				<path id="Fill-8" class="st1" d="M21.2,9.5h-4.9V7.3c0-1.6-1-2.4-2-2.6V0.4c4.3,0.3,6.9,2.6,6.9,6.7V9.5z"/>
				<polygon id="Fill-10" class="st1" points="30.4,22.3 30.4,24.4 25.4,24.4 25.4,0.9 30.4,0.9 				"/>
				<polygon id="Fill-12" class="st1" points="36.1,14.7 34.2,14.7 32,14.7 32,10.6 36.1,10.6 				"/>
				<polygon id="Fill-14" class="st1" points="38.2,5 36,5 32,5 32,0.9 38.2,0.9 				"/>
				<g id="Group-18" transform="translate(38.146789, 38.181818)">
					<g id="Clip-17">
					</g>
					<defs>
						<filter id="Adobe_OpacityMaskFilter" filterUnits="userSpaceOnUse" x="5.5" y="0.4" width="3.5" height="3.5">
							<feColorMatrix  type="matrix" values="1 0 0 0 0  0 1 0 0 0  0 0 1 0 0  0 0 0 1 0"/>
						</filter>
					</defs>
					<mask maskUnits="userSpaceOnUse" x="5.5" y="0.4" width="3.5" height="3.5" id="mask-2">
						<g class="st2">
							<polygon id="path-1" class="st3" points="9,3.9 9,0.4 5.5,0.4 5.5,3.9 							"/>
						</g>
					</mask>
					<path id="Fill-16" class="st4" d="M7.3,0.4c1,0,1.8,0.8,1.8,1.8S8.2,3.9,7.3,3.9c-1,0-1.8-0.8-1.8-1.8S6.3,0.4,7.3,0.4L7.3,0.4
						z M8.7,2.2c0-0.8-0.6-1.5-1.4-1.5c-0.8,0-1.4,0.7-1.4,1.5s0.6,1.5,1.4,1.5C8.1,3.7,8.7,3,8.7,2.2L8.7,2.2z M6.6,1.2h0.8
						c0.5,0,0.7,0.2,0.7,0.6c0,0.4-0.2,0.5-0.6,0.6l0.6,0.9H7.8L7.2,2.4H6.9v0.9H6.6V1.2z M7.2,2.1c0.3,0,0.5,0,0.5-0.3
						c0-0.3-0.2-0.3-0.4-0.3H6.9v0.6H7.2z"/>
				</g>
			</g>
		</g>
	</g>
</g>
</svg>
