<svg width="4px" height="7px" viewBox="0 0 4 7" version="1.1" xmlns="http://www.w3.org/2000/svg" xmlns:xlink="http://www.w3.org/1999/xlink">
    <g id="Symbols" stroke="none" stroke-width="1" fill="none" fill-rule="evenodd">
        <g id="Arrow_Icon" fill="#181818">
            <g id="Page-1">
                <path d="M3.9004,3.60009 L0.7994,6.70009 C0.7994,6.70009 0.7004,6.80009 0.6004,6.80009 C0.5004,6.80009 0.5004,6.80009 0.4004,6.70009 L0.1004,6.40009 C0.1004,6.40009 0.000400000001,6.30009 0.000400000001,6.20009 C0.000400000001,6.10009 0.000400000001,6.10009 0.1004,6.00009 L2.7004,3.40009 L0.1004,0.80009 C0.1004,0.80009 0.000400000001,0.70009 0.000400000001,0.60009 C0.000400000001,0.50009 0.000400000001,0.50009 0.1004,0.40009 L0.4004,0.10009 C0.4004,0.10009 0.5004,9e-05 0.6004,9e-05 C0.7004,9e-05 0.7004,9e-05 0.7994,0.10009 L3.9004,3.20009 C3.9004,3.20009 4.0004,3.30009 4.0004,3.40009 C4.0004,3.50009 3.9544,3.55309 3.9004,3.60009" id="Fill-1"></path>
            </g>
        </g>
    </g>
</svg>
