<svg version="1.1" id="Layer_1" xmlns="http://www.w3.org/2000/svg" xmlns:xlink="http://www.w3.org/1999/xlink" x="0px" y="0px"
	 viewBox="0 0 11 11.2" style="enable-background:new 0 0 11 11.2;" xml:space="preserve">
<style type="text/css">
	.st0{fill:#FFFFFF;}
	.st1{fill:#181818;}
</style>
<g>
	<polygon id="path-1" class="st0" points="1,5.7 1,10.4 10.2,10.4 10.2,5.7 10.2,1 1,1 	"/>
</g>
<g id="Symbols">
	<g id="Nav_850px" transform="translate(-688.000000, -11.000000)">
		<g id="Page-1" transform="translate(688.000000, 11.000000)">
			<g id="Clip-2">
			</g>
			<path id="Fill-1" class="st1" d="M4.6,10.2L1.4,6.6c0,0-1.2-1.3-1.2-2.7C0.2,2.1,1.1,1,2.7,1c0.9,0,1.7,0.8,2.2,1.3
				C5.2,1.8,6.1,1,7,1c1.5,0,2.5,1.1,2.5,2.8c0,1.5-1.1,2.7-1.2,2.7L5,10.2c0,0.1-0.1,0.2-0.2,0.2S4.7,10.3,4.6,10.2"/>
		</g>
	</g>
</g>
</svg>
