<svg version="1.1" id="Layer_1" xmlns="http://www.w3.org/2000/svg" xmlns:xlink="http://www.w3.org/1999/xlink" x="0px" y="0px"
	 viewBox="0 0 12 12" style="enable-background:new 0 0 12 12;" xml:space="preserve">
<style type="text/css">
	.st0{fill:#FFFFFF;}
	.st1{fill:#181818;}
</style>
<g>
	<polygon id="path-1" class="st0" points="10.8,10.8 10.8,1 1,1 1,10.8 	"/>
</g>
<g id="Symbols">
	<g id="Nav_850px" transform="translate(-472.000000, -11.000000)">
		<g id="Page-1" transform="translate(472.000000, 11.000000)">
			<path id="Fill-1" class="st1" d="M8.3,6.4c-0.2,0.9-1,1.7-1.9,1.9v-1H5.3v1c-0.9-0.2-1.6-1-1.8-1.9h1V5.3h-1
				c0.2-0.9,0.9-1.6,1.8-1.8v1h1.1v-1C7.3,3.7,8,4.4,8.2,5.3H7.3v1.1H8.3z M9.4,5.3c-0.2-1.5-1.5-2.7-3-3V1H5.3v1.4
				c-1.5,0.2-2.7,1.5-3,3H1v1.1h1.4c0.2,1.5,1.4,2.7,3,3v1.4h1.1V9.4c1.5-0.2,2.7-1.5,3-3h1.4V5.3H9.4z"/>
		</g>
	</g>
</g>
</svg>
