<svg version="1.1" id="Layer_1" xmlns="http://www.w3.org/2000/svg" xmlns:xlink="http://www.w3.org/1999/xlink" x="0px" y="0px"
	 viewBox="0 0 11 12" style="enable-background:new 0 0 11 12;" xml:space="preserve">
<style type="text/css">
	.st0{fill:#FFFFFF;}
	.st1{fill:#181818;}
</style>
<g>
	<polygon id="path-1" class="st0" points="10,10.9 1,10.9 1,1.1 10,1.1 	"/>
</g>
<g id="Symbols">
	<g id="Nav_850px" transform="translate(-757.000000, -11.000000)">
		<g id="Page-1" transform="translate(757.000000, 11.000000)">
			<path id="Fill-1" class="st1" d="M9.8,8.4L9.8,8.4C9.7,8,9.5,7.7,9.2,7.4l0,0l0,0l0,0l0,0l-2-1.3C7.6,5.6,7.9,5,7.9,4.3V3.6
				c0-1.4-1-2.5-2.3-2.5S3.3,2.2,3.3,3.6v0.6C3.3,4.9,3.6,5.5,4,6L2,7.3l0,0l0,0l0,0l0,0c-0.4,0.3-0.6,0.6-0.6,1l0,0L1,10.5
				c0,0.1,0,0.2,0.1,0.3c0,0.1,0.1,0.1,0.2,0.1h8.5c0.1,0,0.1,0,0.2-0.1c0-0.1,0-0.2,0-0.3L9.8,8.4z"/>
		</g>
	</g>
</g>
</svg>
