<svg version="1.1" id="Layer_1" xmlns="http://www.w3.org/2000/svg" xmlns:xlink="http://www.w3.org/1999/xlink" x="0px" y="0px"
	 viewBox="0 0 39.1 64.3" style="enable-background:new 0 0 39.1 64.3;" xml:space="preserve">
<style type="text/css">
	.st0{fill:#181818;}
	.st1{enable-background:new    ;}
</style>
<g>
	<path class="st0" d="M33.6,29.2H5.3c-0.1,0-0.3-0.1-0.4-0.2s-0.1-0.2-0.1-0.4L6.4,0.5C6.4,0.2,6.6,0,6.9,0h25.2
		c0.3,0,0.5,0.2,0.5,0.5l1.6,28.1c0,0.1,0,0.3-0.1,0.4C33.9,29.2,33.8,29.2,33.6,29.2z M5.8,28.2h27.3L31.6,1.1H7.3L5.8,28.2z"/>
	<path class="st0" d="M38.4,34H0.5c-0.2,0-0.4-0.1-0.5-0.3c-0.1-0.2,0-0.4,0.1-0.5l4.8-4.9c0.1-0.1,0.2-0.1,0.4-0.1h28.4
		c0.1,0,0.3,0.1,0.4,0.1l4.8,4.9c0.1,0.1,0.2,0.4,0.1,0.5C38.8,33.9,38.6,34,38.4,34z M1.7,33h35.5l-3.8-3.9H5.5L1.7,33z"/>
	<g class="st1">
		<g>
			<g>
				<path class="st0" d="M38.4,38.5H0.5C0.2,38.5,0,38.3,0,38v-4.5C0,33.2,0.2,33,0.5,33h37.9c0.3,0,0.5,0.2,0.5,0.5V38
					C38.9,38.2,38.7,38.5,38.4,38.5z M1,37.5h36.9V34H1V37.5z"/>
				<path class="st0" d="M3.9,64.3H0.5c-0.1,0-0.3-0.1-0.4-0.2S0,63.9,0,63.7l3.2-25.8c0-0.2,0.2-0.4,0.5-0.4h5
					c0.1,0,0.3,0.1,0.4,0.2s0.1,0.3,0.1,0.4L4.4,63.9C4.4,64.1,4.2,64.3,3.9,64.3z M1.1,63.3h2.5l4.5-24.8h-4L1.1,63.3z"/>
				<path class="st0" d="M38.4,64.3H35c-0.2,0-0.4-0.2-0.5-0.4l-4.8-25.8c0-0.1,0-0.3,0.1-0.4s0.2-0.2,0.4-0.2h5
					c0.3,0,0.5,0.2,0.5,0.4l3.2,25.8c0,0.1,0,0.3-0.1,0.4C38.7,64.2,38.5,64.3,38.4,64.3z M35.4,63.3h2.5l-3.1-24.8h-4L35.4,63.3z"
					/>
			</g>
		</g>
	</g>
</g>
</svg>
