<svg version="1.1" id="Layer_1" xmlns="http://www.w3.org/2000/svg" xmlns:xlink="http://www.w3.org/1999/xlink" x="0px" y="0px"
	 viewBox="0 0 9 9.8" style="enable-background:new 0 0 9 9.8;" xml:space="preserve">
<style type="text/css">
	.st0{filter:url(#Adobe_OpacityMaskFilter);}
	.st1{fill:#FFFFFF;}
	.st2{mask:url(#mask-2);fill:#181818;}
</style>
<g id="Symbols">
	<g id="Nav_850px" transform="translate(-757.000000, -11.000000)">
		<g id="Page-1" transform="translate(757.000000, 11.000000)">
			<g id="Clip-2">
			</g>
			<defs>
				<filter id="Adobe_OpacityMaskFilter" filterUnits="userSpaceOnUse" x="0" y="0" width="9" height="9.8">
					<feColorMatrix  type="matrix" values="1 0 0 0 0  0 1 0 0 0  0 0 1 0 0  0 0 0 1 0"/>
				</filter>
			</defs>
			<mask maskUnits="userSpaceOnUse" x="0" y="0" width="9" height="9.8" id="mask-2">
				<g class="st0">
					<polygon id="path-1" class="st1" points="9,9.8 0,9.8 0,0 9,0 					"/>
				</g>
			</mask>
			<path id="Fill-1" class="st2" d="M8.8,7.3L8.8,7.3c-0.1-0.4-0.3-0.7-0.6-1v0l0,0c0,0,0,0,0,0h0l-2-1.3c0.4-0.5,0.7-1.1,0.7-1.8
				V2.5c0-1.4-1-2.5-2.3-2.5C3.3,0,2.3,1.1,2.3,2.5v0.6c0,0.7,0.3,1.3,0.7,1.8L1,6.2h0c0,0,0,0,0,0l0,0v0c-0.4,0.3-0.6,0.6-0.6,1v0
				L0,9.4c0,0.1,0,0.2,0.1,0.3c0,0.1,0.1,0.1,0.2,0.1h8.5c0.1,0,0.1,0,0.2-0.1C9,9.6,9,9.5,9,9.4L8.8,7.3z"/>
		</g>
	</g>
</g>
</svg>
