<svg width="10px" height="10px" viewBox="0 0 10 10" version="1.1" xmlns="http://www.w3.org/2000/svg" xmlns:xlink="http://www.w3.org/1999/xlink">
    <defs>
        <polygon id="path-1" points="0 4.67709091 0 9.35372727 9.23384615 9.35372727 9.23384615 4.67709091 9.23384615 0.000454545455 0 0.000454545455 0 4.67709091"></polygon>
    </defs>
    <g id="Symbols" stroke="none" stroke-width="1" fill="none" fill-rule="evenodd">
        <g id="DesktopNav_FullWidth" transform="translate(-1196.000000, -11.000000)">
            <g id="Page-1" transform="translate(1196.000000, 11.000000)">
                <mask id="mask-2" fill="white">
                    <use xlink:href="#path-1"></use>
                </mask>
                <g id="Clip-2"></g>
                <path d="M4.39,9.24409091 L1.17461538,5.57772727 C1.13384615,5.535 0,4.31136364 0,2.84954545 C0,1.06590909 0.922307692,0.000454545455 2.46307692,0.000454545455 C3.36461538,0.000454545455 4.21,0.840454545 4.61692308,1.315 C5.02384615,0.840454545 5.86923077,0.000454545455 6.77076923,0.000454545455 C8.31153846,0.000454545455 9.23384615,1.06590909 9.23384615,2.84954545 C9.23384615,4.31136364 8.1,5.535 8.05384615,5.59045455 L4.84384615,9.24409091 C4.78153846,9.31772727 4.69923077,9.35409091 4.61692308,9.35409091 C4.53384615,9.35409091 4.45230769,9.31772727 4.39,9.24409091" id="Fill-1" fill="#000000" mask="url(#mask-2)"></path>
            </g>
        </g>
    </g>
</svg>
