<?xml version="1.0" encoding="UTF-8"?>
<svg width="375px" height="375px" viewBox="0 0 375 375" version="1.1" xmlns="http://www.w3.org/2000/svg" xmlns:xlink="http://www.w3.org/1999/xlink">
    <!-- Generator: Sketch 42 (36781) - http://www.bohemiancoding.com/sketch -->
    <title>MadeToMix_Logo2_Black</title>
    <desc>Created with Sketch.</desc>
    <defs></defs>
    <g id="Symbols" stroke="none" stroke-width="1" fill="none" fill-rule="evenodd">
        <g id="MadeToMix_Logo2_Black" fill="#221F20">
            <g id="Page-1">
                <path d="M0,374.893258 L374.890449,374.893258 L374.890449,0 L0,0 L0,374.893258 Z M15.4494382,359.44382 L359.441011,359.44382 L359.441011,15.4494382 L15.4494382,15.4494382 L15.4494382,359.44382 Z" id="Fill-1"></path>
                <polygon id="Fill-2" points="87.858427 143.382163 110.819101 190.001545 134.05927 143.240309 159.118258 143.102669 159.118258 249.359691 134.05927 249.359691 134.05927 203.161657 110.819101 249.779635 89.1196629 204.001545 89.1196629 249.359691 62.3808989 249.359691 62.3808989 143.382163"></polygon>
                <polygon id="Fill-3" points="183.609551 249.359551 211.047753 249.359551 211.047753 142.960674 183.609551 142.960674"></polygon>
                <polygon id="Fill-4" points="260.710674 142.961657 271.349719 164.241152 281.988764 142.961657 311.110955 142.961657 285.490169 195.742556 312.511236 249.360534 283.25 249.360534 271.629213 226.118961 260.009831 249.360534 228.79073 249.360534 257.212079 195.742556 231.02809 142.961657"></polygon>
                <polygon id="Fill-5" points="94.1594101 122.868118 94.1594101 84.1082865 91.9936798 95.7445225 86.2942416 122.868118 78.7521067 122.868118 73.3742978 95.7445225 71.2886236 84.1082865 71.2886236 122.868118 62.3813202 122.868118 62.3813202 69.4214888 75.7830056 69.4214888 81.3195225 96.5464888 83.0049157 106.417275 84.7689607 96.5464888 90.2268258 69.4214888 103.54986 69.4214888 103.54986 122.868118"></polygon>
                <path d="M128.26573,83.8679775 L124.654775,104.491573 L131.476404,104.491573 L128.26573,83.8679775 Z M134.525562,122.867978 L132.760112,112.356742 L123.291011,112.356742 L121.36264,122.867978 L112.055056,122.867978 L122.80927,69.4213483 L133.963764,69.4213483 L144.637921,122.867978 L134.525562,122.867978 Z" id="Fill-6"></path>
                <path d="M173.204073,83.9469101 C173.204073,80.0957865 171.597331,78.0073034 167.907725,78.0073034 L163.173174,78.0073034 L163.173174,114.282584 L167.907725,114.282584 C171.597331,114.282584 173.204073,112.195506 173.204073,108.424438 L173.204073,83.9469101 Z M168.629635,122.868258 L153.223736,122.868258 L153.223736,69.4216292 L168.629635,69.4216292 C178.020084,69.4216292 183.234972,75.4398876 183.234972,83.8682584 L183.234972,108.904775 C183.234972,117.413202 178.020084,122.868258 168.629635,122.868258 L168.629635,122.868258 Z" id="Fill-7"></path>
                <polygon id="Fill-9" points="194.389466 122.868118 194.389466 69.4214888 219.909129 69.4214888 219.909129 78.0071629 204.338904 78.0071629 204.338904 91.2501404 215.093118 91.2501404 215.093118 99.1139045 204.338904 99.1139045 204.338904 113.960815 219.909129 113.960815 219.909129 122.868118"></polygon>
                <polygon id="Fill-10" points="264.44677 78.2494382 264.44677 122.867416 254.414466 122.867416 254.414466 78.2494382 244.545084 78.2494382 244.545084 69.4207865 274.2375 69.4207865 274.2375 78.2494382"></polygon>
                <g id="Group-15" transform="translate(61.797753, 67.308989)">
                    <path d="M240.678792,14.8733146 C240.678792,11.7426966 238.836096,9.65561798 235.543961,9.65561798 C232.334691,9.65561798 230.489185,11.7426966 230.489185,14.8733146 L230.489185,42.8002809 C230.489185,45.9323034 232.334691,48.0151685 235.543961,48.0151685 C238.836096,48.0151685 240.678792,45.9323034 240.678792,42.8002809 L240.678792,14.8733146 Z M235.543961,56.7651685 C226.234972,56.7651685 220.376826,50.6654494 220.376826,42.1570225 L220.376826,15.516573 C220.376826,7.08960674 226.234972,0.991292135 235.543961,0.991292135 C244.933006,0.991292135 250.713904,7.08960674 250.713904,15.516573 L250.713904,42.1570225 C250.713904,50.6654494 244.933006,56.7651685 235.543961,56.7651685 L235.543961,56.7651685 Z" id="Fill-11"></path>
                    <path d="M17.3373596,208.198455 L17.3373596,202.597331 L0.583146067,202.597331 L0.583146067,238.476545 L7.26292135,238.476545 L7.26292135,223.229354 L14.6969101,223.229354 L14.6969101,217.626826 L7.26292135,217.626826 L7.26292135,208.198455 L17.3373596,208.198455 Z M47.9272472,230.178792 L47.9272472,202.597331 L41.4075843,202.597331 L41.4075843,230.178792 C41.4075843,232.279916 40.222191,233.465309 38.0143258,233.465309 C35.858427,233.465309 34.6730337,232.279916 34.6730337,230.178792 L34.6730337,202.597331 L27.8851124,202.597331 L27.8851124,230.178792 C27.8851124,235.566433 32.1955056,239.284129 38.0143258,239.284129 C43.8317416,239.284129 47.9272472,235.566433 47.9272472,230.178792 L47.9272472,230.178792 Z M80.1098315,238.691433 L80.1098315,236.698455 C79.3022472,235.8375 78.8176966,234.704073 78.8176966,233.035534 L78.8176966,226.4625 C78.8176966,224.145084 77.4707865,221.774298 74.6688202,221.020084 C77.4707865,220.160534 78.7095506,218.166152 78.7095506,215.472331 L78.7095506,210.407725 C78.7095506,205.396489 75.4230337,202.597331 70.5213483,202.597331 L59.4764045,202.597331 L59.4764045,238.476545 L66.1561798,238.476545 L66.1561798,223.608567 L69.6589888,223.608567 C71.5438202,223.608567 72.4061798,225.008848 72.4061798,226.677388 L72.4061798,233.411938 C72.4061798,236.538343 73.4300562,238.691433 76.0691011,238.691433 L80.1098315,238.691433 Z M72.1912921,215.795365 C72.1912921,217.733567 71.2755618,218.650702 69.5508427,218.650702 L66.1561798,218.650702 L66.1561798,208.090309 L69.8205056,208.090309 C71.4904494,208.090309 72.1912921,209.060815 72.1912921,210.677388 L72.1912921,215.795365 Z M111.507303,238.476545 L111.507303,202.597331 L105.473596,202.597331 L105.473596,223.875421 L103.104213,218.166152 L96.4764045,202.597331 L90.7123596,202.597331 L90.7123596,238.476545 L96.8542135,238.476545 L96.8542135,217.466713 L99.3865169,223.175983 L106.335955,238.476545 L111.507303,238.476545 Z M123.133708,238.477949 L129.813483,238.477949 L129.813483,202.597331 L123.133708,202.597331 L123.133708,238.477949 Z M160.264326,208.521489 L160.264326,202.597331 L140.330337,202.597331 L140.330337,208.521489 L146.958146,208.521489 L146.958146,238.476545 L153.691292,238.476545 L153.691292,208.521489 L160.264326,208.521489 Z M190.772753,230.178792 L190.772753,202.597331 L184.25309,202.597331 L184.25309,230.178792 C184.25309,232.279916 183.069101,233.465309 180.859831,233.465309 C178.705337,233.465309 177.519944,232.279916 177.519944,230.178792 L177.519944,202.597331 L170.732022,202.597331 L170.732022,230.178792 C170.732022,235.566433 175.041011,239.284129 180.859831,239.284129 C186.678652,239.284129 190.772753,235.566433 190.772753,230.178792 L190.772753,230.178792 Z M222.956742,238.691433 L222.956742,236.698455 C222.147753,235.8375 221.663202,234.704073 221.663202,233.035534 L221.663202,226.4625 C221.663202,224.145084 220.316292,221.774298 217.514326,221.020084 C220.316292,220.160534 221.555056,218.166152 221.555056,215.472331 L221.555056,210.407725 C221.555056,205.396489 218.268539,202.597331 213.366854,202.597331 L202.32191,202.597331 L202.32191,238.476545 L209.00309,238.476545 L209.00309,223.608567 L212.504494,223.608567 C214.39073,223.608567 215.25309,225.008848 215.25309,226.677388 L215.25309,233.411938 C215.25309,236.538343 216.275562,238.691433 218.916011,238.691433 L222.956742,238.691433 Z M215.036798,215.795365 C215.036798,217.733567 214.121067,218.650702 212.396348,218.650702 L209.00309,218.650702 L209.00309,208.090309 L212.666011,208.090309 C214.335955,208.090309 215.036798,209.060815 215.036798,210.677388 L215.036798,215.795365 Z M250.713764,238.476545 L250.713764,232.497612 L240.260112,232.497612 L240.260112,222.528511 L247.479213,222.528511 L247.479213,217.249017 L240.260112,217.249017 L240.260112,208.359972 L250.713764,208.359972 L250.713764,202.597331 L233.580337,202.597331 L233.580337,238.476545 L250.713764,238.476545 Z" id="Fill-13"></path>
                </g>
            </g>
        </g>
    </g>
</svg>